<svg xmlns="http://www.w3.org/2000/svg" xmlns:xlink="http://www.w3.org/1999/xlink" width="911pt" height="206pt" viewBox="0 0 911 206"><g id="graph0" class="graph" transform="scale(1 1) rotate(0) translate(4 202)"><title>software dependencies</title><polygon fill="#fff" stroke="#fff" points="-4 5 -4 -202 908 -202 908 5 -4 5"/><g id="node1" class="node"><title>libexif</title><ellipse cx="252" cy="-171" fill="#ffb2b2" stroke="#ffb2b2" rx="33.199" ry="18"/><text x="252" y="-167.3" font-family="Times,serif" font-size="14" text-anchor="middle">libexif</text></g><g id="node2" class="node"><title>libexifgtk</title><ellipse cx="141" cy="-90" fill="#ffb2b2" stroke="#ffb2b2" rx="48.144" ry="18"/><text x="141" y="-86.3" font-family="Times,serif" font-size="14" text-anchor="middle">libexif-gtk</text></g><g id="edge2" class="edge"><title>libexif-&gt;libexifgtk</title><path fill="none" stroke="#000" d="M232.665,-156.239C215.567,-144.071 190.359,-126.129 170.703,-112.14"/><polygon fill="#000" stroke="#000" points="172.562 -109.167 162.385 -106.22 168.503 -114.87 172.562 -109.167"/></g><g id="node3" class="node"><title>exif</title><polygon fill="#ffb2b2" stroke="#ffb2b2" points="257 -36 222.607 -18 257 0 291.393 -18 257 -36"/><text x="257" y="-14.3" font-family="Times,serif" font-size="14" text-anchor="middle">exif</text></g><g id="edge3" class="edge"><title>libexif-&gt;exif</title><path fill="none" stroke="#000" d="M252.564,-152.972C253.427,-126.892 255.085,-76.8275 256.111,-45.8328"/><polygon fill="#000" stroke="#000" points="259.613 -45.846 256.446 -35.735 252.617 -45.614 259.613 -45.846"/></g><g id="node7" class="node"><title>gtkam</title><polygon fill="#c1b2ff" stroke="#c1b2ff" points="149 -36 102.683 -18 149 0 195.317 -18 149 -36"/><text x="149" y="-14.3" font-family="Times,serif" font-size="14" text-anchor="middle">gtkam</text></g><g id="edge11" class="edge"><title>libexif-&gt;gtkam</title><path fill="none" stroke="#000" stroke-dasharray="5 2" d="M244.353,-153.319C234.793,-133.211 217.32,-98.7828 198,-72 189.439,-60.1315 178.491,-48.0621 169.117,-38.4449"/><polygon fill="#000" stroke="#000" points="171.547 -35.925 162.011 -31.308 166.587 -40.864 171.547 -35.925"/></g><g id="node5" class="node"><title>gphoto2</title><polygon fill="#c1b2ff" stroke="#c1b2ff" points="369 -36 312.897 -18 369 0 425.103 -18 369 -36"/><text x="369" y="-14.3" font-family="Times,serif" font-size="14" text-anchor="middle">gphoto2</text></g><g id="edge12" class="edge"><title>libexif-&gt;gphoto2</title><path fill="none" stroke="#000" stroke-dasharray="5 2" d="M264.3,-154.126C285.322,-126.994 328.199,-71.6583 352.045,-40.8824"/><polygon fill="#000" stroke="#000" points="354.874 -42.946 358.232 -32.897 349.34 -38.658 354.874 -42.946"/></g><g id="node8" class="node"><title>libgphoto2</title><ellipse cx="446" cy="-90" fill="#c1b2ff" stroke="#c1b2ff" rx="48.618" ry="18"/><text x="446" y="-86.3" font-family="Times,serif" font-size="14" text-anchor="middle">libgphoto2</text></g><g id="edge14" class="edge"><title>libexif-&gt;libgphoto2</title><path fill="none" stroke="#000" stroke-dasharray="5 2" d="M272.002,-156.379C278.805,-152.085 286.569,-147.543 294,-144 327.883,-127.845 368.054,-114.052 398.587,-104.59"/><polygon fill="#000" stroke="#000" points="400.006 -107.816 408.55 -101.55 397.963 -101.121 400.006 -107.816"/></g><g id="node4" class="node"><title>gexif</title><polygon fill="#ffb2b2" stroke="#ffb2b2" points="40 -36 -.165 -18 40 0 80.165 -18 40 -36"/><text x="40" y="-14.3" font-family="Times,serif" font-size="14" text-anchor="middle">gexif</text></g><g id="edge1" class="edge"><title>libexifgtk-&gt;gexif</title><path fill="none" stroke="#000" d="M119.085,-73.811C102.734,-62.4793 80.4239,-47.0165 63.6676,-35.4033"/><polygon fill="#000" stroke="#000" points="65.216 -32.218 55.003 -29.398 61.228 -37.971 65.216 -32.218"/></g><g id="edge16" class="edge"><title>libexifgtk-&gt;gtkam</title><path fill="none" stroke="#000" stroke-dasharray="5 2" d="M142.978,-71.6966C143.872,-63.8676 144.95,-54.4354 145.945,-45.7278"/><polygon fill="#000" stroke="#000" points="149.442 -45.955 147.1 -35.622 142.487 -45.16 149.442 -45.955"/></g><g id="node6" class="node"><title>gphotofs</title><polygon fill="#c1b2ff" stroke="#c1b2ff" points="514 -36 455.759 -18 514 0 572.241 -18 514 -36"/><text x="514" y="-14.3" font-family="Times,serif" font-size="14" text-anchor="middle">gphotofs</text></g><g id="edge4" class="edge"><title>libgphoto2-&gt;gphotofs</title><path fill="none" stroke="#000" d="M461.771,-72.7646C471.369,-62.8847 483.718,-50.1725 493.999,-39.5898"/><polygon fill="#000" stroke="#000" points="496.592 -41.943 501.05 -32.331 491.571 -37.065 496.592 -41.943"/></g><g id="edge5" class="edge"><title>libgphoto2-&gt;gtkam</title><path fill="none" stroke="#000" d="M405.068,-80.1564C358.454,-69.9768 280.065,-52.529 213,-36 203.737,-33.717 193.754,-31.1278 184.492,-28.6708"/><polygon fill="#000" stroke="#000" points="185.357 -25.279 174.792 -26.077 183.549 -32.042 185.357 -25.279"/></g><g id="edge6" class="edge"><title>libgphoto2-&gt;gphoto2</title><path fill="none" stroke="#000" d="M428.528,-73.1159C417.317,-62.9243 402.675,-49.6133 390.718,-38.7434"/><polygon fill="#000" stroke="#000" points="393.065 -36.147 383.311 -32.01 388.356 -41.327 393.065 -36.147"/></g><g id="node9" class="node"><title>libgphoto2sharp</title><ellipse cx="662" cy="-18" fill="#c1b2ff" stroke="#c1b2ff" rx="70.267" ry="18"/><text x="662" y="-14.3" font-family="Times,serif" font-size="14" text-anchor="middle">libgphoto2-sharp</text></g><g id="edge7" class="edge"><title>libgphoto2-&gt;libgphoto2sharp</title><path fill="none" stroke="#000" d="M481.185,-77.5975C516.304,-66.2163 570.651,-48.6039 610.598,-35.658"/><polygon fill="#000" stroke="#000" points="611.733 -38.969 620.167 -32.557 609.575 -32.31 611.733 -38.969"/></g><g id="node10" class="node"><title>libgphoto2python</title><ellipse cx="827" cy="-18" fill="#c1b2ff" stroke="#c1b2ff" rx="76.065" ry="18"/><text x="827" y="-14.3" font-family="Times,serif" font-size="14" text-anchor="middle">libgphoto2-python</text></g><g id="edge8" class="edge"><title>libgphoto2-&gt;libgphoto2python</title><path fill="none" stroke="#000" d="M489.036,-81.5098C546.52,-71.4496 651.517,-52.8813 741,-36 747.531,-34.7678 754.337,-33.4613 761.134,-32.1417"/><polygon fill="#000" stroke="#000" points="761.907 -35.557 771.051 -30.206 760.566 -28.686 761.907 -35.557"/></g><g id="node11" class="node"><title>libgtk</title><polygon fill="none" stroke="#000" points="97.25 -189 32.75 -189 32.75 -153 97.25 -153 97.25 -189"/><text x="65" y="-167.3" font-family="Times,serif" font-size="14" text-anchor="middle">libgtk2.0</text></g><g id="edge9" class="edge"><title>libgtk-&gt;gexif</title><path fill="none" stroke="#000" d="M60.6798,-152.986C57.6468,-140.58 53.6711,-123.328 51,-108 47.3701,-87.1693 44.4957,-63.3918 42.5968,-45.6569"/><polygon fill="#000" stroke="#000" points="46.054 -45.062 41.542 -35.476 39.091 -45.783 46.054 -45.062"/></g><g id="edge10" class="edge"><title>libgtk-&gt;libexifgtk</title><path fill="none" stroke="#000" d="M81.4909,-152.858C92.2645,-141.659 106.478,-126.885 118.312,-114.584"/><polygon fill="#000" stroke="#000" points="120.91 -116.932 125.32 -107.298 115.865 -112.079 120.91 -116.932"/></g><g id="edge13" class="edge"><title>libgtk-&gt;gtkam</title><path fill="none" stroke="#000" d="M64.8711,-152.812C65.459,-132.203 68.8746,-97.2833 84,-72 93.198,-56.6249 108.571,-43.7856 122.057,-34.5964"/><polygon fill="#000" stroke="#000" points="124.067 -37.465 130.564 -29.095 120.266 -31.587 124.067 -37.465"/></g><g id="node12" class="node"><title>libglib</title><polygon fill="none" stroke="#000" points="560.25 -189 491.75 -189 491.75 -153 560.25 -153 560.25 -189"/><text x="526" y="-167.3" font-family="Times,serif" font-size="14" text-anchor="middle">libglib2.0</text></g><g id="edge17" class="edge"><title>libglib-&gt;gphotofs</title><path fill="none" stroke="#000" d="M524.647,-152.972C522.574,-126.892 518.596,-76.8275 516.132,-45.8328"/><polygon fill="#000" stroke="#000" points="519.611 -45.427 515.33 -35.735 512.633 -45.981 519.611 -45.427"/></g><g id="node13" class="node"><title>libfuse</title><polygon fill="none" stroke="#000" points="639 -189 579 -189 579 -153 639 -153 639 -189"/><text x="609" y="-167.3" font-family="Times,serif" font-size="14" text-anchor="middle">libfuse2</text></g><g id="edge18" class="edge"><title>libfuse-&gt;gphotofs</title><path fill="none" stroke="#000" d="M598.287,-152.972C581.224,-125.851 547.844,-72.7939 528.606,-42.2164"/><polygon fill="#000" stroke="#000" points="531.411 -40.102 523.124 -33.502 525.487 -43.83 531.411 -40.102"/></g><g id="node14" class="node"><title>libusb</title><polygon fill="#aee5a0" stroke="#aee5a0" points="473 -197.5 377 -197.5 377 -144.5 473 -144.5 473 -197.5"/><text x="425" y="-182.3" font-family="Times,serif" font-size="14" text-anchor="middle">libusb</text><text x="425" y="-167.3" font-family="Times,serif" font-size="14" text-anchor="middle">(required for</text><text x="425" y="-152.3" font-family="Times,serif" font-size="14" text-anchor="middle">USB cameras)</text></g><g id="edge15" class="edge"><title>libusb-&gt;libgphoto2</title><path fill="none" stroke="#000" stroke-dasharray="5 2" d="M431.876,-144.132C434.121,-135.687 436.618,-126.293 438.881,-117.781"/><polygon fill="#000" stroke="#000" points="442.305 -118.523 441.492 -107.96 435.54 -116.725 442.305 -118.523"/></g><g id="node15" class="node"><title>libpopt</title><polygon fill="none" stroke="#000" points="358.25 -189 303.75 -189 303.75 -153 358.25 -153 358.25 -189"/><text x="331" y="-167.3" font-family="Times,serif" font-size="14" text-anchor="middle">libpopt</text></g><g id="edge19" class="edge"><title>libpopt-&gt;exif</title><path fill="none" stroke="#000" d="M322.655,-152.972C309.285,-125.69 283.052,-72.1612 268.111,-41.6725"/><polygon fill="#000" stroke="#000" points="271.231 -40.085 263.687 -32.646 264.945 -43.166 271.231 -40.085"/></g><g id="edge20" class="edge"><title>libpopt-&gt;gphoto2</title><path fill="none" stroke="#000" d="M335.285,-152.972C341.918,-126.616 354.715,-75.7652 362.493,-44.8553"/><polygon fill="#000" stroke="#000" points="365.971 -45.378 365.017 -34.827 359.182 -43.67 365.971 -45.378"/></g><g id="node16" class="node"><title>python</title><polygon fill="none" stroke="#000" points="854 -189 800 -189 800 -153 854 -153 854 -189"/><text x="827" y="-167.3" font-family="Times,serif" font-size="14" text-anchor="middle">python</text></g><g id="edge21" class="edge"><title>python-&gt;libgphoto2python</title><path fill="none" stroke="#000" d="M827,-152.972C827,-127.03 827,-77.3566 827,-46.3264"/><polygon fill="#000" stroke="#000" points="830.5 -46.197 827 -36.197 823.5 -46.198 830.5 -46.197"/></g><g id="node17" class="node"><title>mono</title><polygon fill="none" stroke="#000" points="711 -189 657 -189 657 -153 711 -153 711 -189"/><text x="684" y="-167.3" font-family="Times,serif" font-size="14" text-anchor="middle">mono</text></g><g id="edge22" class="edge"><title>mono-&gt;libgphoto2sharp</title><path fill="none" stroke="#000" d="M681.519,-152.972C677.739,-127.03 670.502,-77.3566 665.981,-46.3264"/><polygon fill="#000" stroke="#000" points="669.411 -45.588 664.506 -36.197 662.484 -46.598 669.411 -45.588"/></g></g></svg>